<svg xmlns="http://www.w3.org/2000/svg" xmlns:xlink="http://www.w3.org/1999/xlink" width="1240" height="541.136" viewBox="0 0 1240 541.136">
  <defs>
    <clipPath id="clip-path">
      <rect id="Rectángulo_401438" data-name="Rectángulo 401438" width="340" height="162" rx="40" transform="translate(843 4978)" fill="#fff" stroke="#707070" stroke-width="1"/>
    </clipPath>
    <filter id="Trazado_168917" x="653.673" y="-390.794" width="1248.385" height="822.857" filterUnits="userSpaceOnUse">
      <feOffset input="SourceAlpha"/>
      <feGaussianBlur stdDeviation="2.776" result="blur"/>
      <feFlood flood-opacity="0.161"/>
      <feComposite operator="in" in2="blur"/>
      <feComposite in="SourceGraphic"/>
    </filter>
    <filter id="Trazado_168917-2" x="90" y="90.883" width="640" height="378.365" filterUnits="userSpaceOnUse">
      <feOffset input="SourceAlpha"/>
      <feGaussianBlur stdDeviation="5" result="blur-2"/>
      <feFlood flood-opacity="0.161"/>
      <feComposite operator="in" in2="blur-2"/>
      <feComposite in="SourceGraphic"/>
    </filter>
  </defs>
  <g id="Grupo_1100677" data-name="Grupo 1100677" transform="translate(-180 -4889.66)">
    <rect id="Rectángulo_401445" data-name="Rectángulo 401445" width="1240" height="541.136" rx="20" transform="translate(180 4889.66)" fill="#e8ebf3"/>
    <g id="Grupo_1100012" data-name="Grupo 1100012" transform="translate(105 50.658)">
      <g id="Grupo_1100005" data-name="Grupo 1100005" transform="translate(0 -14)">
        <rect id="Rectángulo_18486" data-name="Rectángulo 18486" width="400" height="359.812" rx="40" transform="translate(810 4947.438)" fill="#a5b0d0"/>
        <text id="_1._País_Los_dos_primeros_dígitos_identifican_al_país_del_que_proviene_el_artículo." data-name="1. País
Los dos primeros dígitos identifican al país del que proviene el artículo." transform="translate(843 5163)" fill="#12263f" font-size="16" font-family="Roboto-Black, Roboto" font-weight="800"><tspan x="0" y="17">1. País</tspan><tspan font-family="Roboto-Regular, Roboto" font-weight="400"><tspan x="0" y="41">Los dos primeros dígitos identifican al país del </tspan><tspan x="0" y="65">que proviene el artículo.</tspan></tspan></text>
        <g id="Enmascarar_grupo_1098684" data-name="Enmascarar grupo 1098684" transform="translate(-2)" clip-path="url(#clip-path)">
          <g id="Grupo_110604" data-name="Grupo 110604" transform="translate(493.344 4046.009)">
            <g id="Grupo_110603" data-name="Grupo 110603" transform="translate(245.656 424.527)">
              <g id="Grupo_110249" data-name="Grupo 110249" transform="translate(0 0)">
                <g transform="matrix(1, 0, 0, 1, -662, 382.47)" filter="url(#Trazado_168917)">
                  <path id="Trazado_168917-3" data-name="Trazado 168917" d="M1690.332,791.027c0,20.527-15.061,37.318-33.472,37.318H492.092c-18.411,0-33.472-16.795-33.472-37.318V59.467c0-20.527,15.061-37.324,33.472-37.324H1656.878c18.411,0,33.472,16.8,33.472,37.324Z" transform="translate(203.38 -404.61)" fill="#fff"/>
                </g>
                <g id="Grupo_110221" data-name="Grupo 110221" transform="translate(249.391 174.191)">
                  <rect id="Rectángulo_36497" data-name="Rectángulo 36497" width="7.437" height="456.601"/>
                </g>
                <g id="Grupo_110222" data-name="Grupo 110222" transform="translate(276.972 174.191)">
                  <rect id="Rectángulo_36498" data-name="Rectángulo 36498" width="7.437" height="456.601"/>
                </g>
                <g id="Grupo_110223" data-name="Grupo 110223" transform="translate(326.128 174.191)">
                  <rect id="Rectángulo_36499" data-name="Rectángulo 36499" width="7.437" height="359.418"/>
                </g>
                <g id="Grupo_110224" data-name="Grupo 110224" transform="translate(864.054 174.191)">
                  <rect id="Rectángulo_36500" data-name="Rectángulo 36500" width="7.437" height="359.418"/>
                </g>
                <g id="Grupo_110225" data-name="Grupo 110225" transform="translate(716.773 174.191)">
                  <rect id="Rectángulo_36501" data-name="Rectángulo 36501" width="7.44" height="359.418"/>
                </g>
                <g id="Grupo_110226" data-name="Grupo 110226" transform="translate(756.82 174.191)">
                  <rect id="Rectángulo_36502" data-name="Rectángulo 36502" width="7.44" height="359.418"/>
                </g>
                <g id="Grupo_110227" data-name="Grupo 110227" transform="translate(884.325 174.191)">
                  <rect id="Rectángulo_36503" data-name="Rectángulo 36503" width="7.437" height="359.418"/>
                </g>
                <g id="Grupo_110228" data-name="Grupo 110228" transform="translate(422.153 174.191)">
                  <rect id="Rectángulo_36504" data-name="Rectángulo 36504" width="7.437" height="359.418"/>
                </g>
                <g id="Grupo_110229" data-name="Grupo 110229" transform="translate(802.699 174.191)">
                  <rect id="Rectángulo_36505" data-name="Rectángulo 36505" width="7.437" height="359.418"/>
                </g>
                <g id="Grupo_110230" data-name="Grupo 110230" transform="translate(738.658 174.191)">
                  <rect id="Rectángulo_36506" data-name="Rectángulo 36506" width="3.72" height="359.418"/>
                </g>
                <g id="Grupo_110231" data-name="Grupo 110231" transform="translate(566.053 174.191)">
                  <rect id="Rectángulo_36507" data-name="Rectángulo 36507" width="3.72" height="359.418"/>
                </g>
                <g id="Grupo_110232" data-name="Grupo 110232" transform="translate(822.48 174.191)">
                  <rect id="Rectángulo_36508" data-name="Rectángulo 36508" width="3.72" height="359.418"/>
                </g>
                <g id="Grupo_110233" data-name="Grupo 110233" transform="translate(295.584 174.191)">
                  <rect id="Rectángulo_36509" data-name="Rectángulo 36509" width="3.72" height="359.418"/>
                </g>
                <g id="Grupo_110234" data-name="Grupo 110234" transform="translate(776.715 174.191)">
                  <rect id="Rectángulo_36510" data-name="Rectángulo 36510" width="14.876" height="359.418"/>
                </g>
                <g id="Grupo_110235" data-name="Grupo 110235" transform="translate(836.078 174.191)">
                  <rect id="Rectángulo_36511" data-name="Rectángulo 36511" width="14.876" height="359.418"/>
                </g>
                <g id="Grupo_110236" data-name="Grupo 110236" transform="translate(346.279 174.191)">
                  <rect id="Rectángulo_36512" data-name="Rectángulo 36512" width="22.316" height="359.418"/>
                </g>
                <g id="Grupo_110237" data-name="Grupo 110237" transform="translate(455.265 174.191)">
                  <rect id="Rectángulo_36513" data-name="Rectángulo 36513" width="29.752" height="359.418"/>
                </g>
                <g id="Grupo_110238" data-name="Grupo 110238" transform="translate(664.184 174.191)">
                  <rect id="Rectángulo_36514" data-name="Rectángulo 36514" width="29.752" height="359.418"/>
                </g>
                <g id="Grupo_110239" data-name="Grupo 110239" transform="translate(504.118 174.191)">
                  <rect id="Rectángulo_36515" data-name="Rectángulo 36515" width="7.437" height="359.418"/>
                </g>
                <g id="Grupo_110240" data-name="Grupo 110240" transform="translate(391.68 174.191)">
                  <rect id="Rectángulo_36516" data-name="Rectángulo 36516" width="7.437" height="359.418"/>
                </g>
                <g id="Grupo_110241" data-name="Grupo 110241" transform="translate(544.165 174.191)">
                  <rect id="Rectángulo_36517" data-name="Rectángulo 36517" width="7.437" height="359.418"/>
                </g>
                <g id="Grupo_110242" data-name="Grupo 110242" transform="translate(410.063 174.191)">
                  <rect id="Rectángulo_36518" data-name="Rectángulo 36518" width="7.44" height="359.418"/>
                </g>
                <g id="Grupo_110243" data-name="Grupo 110243" transform="translate(584.218 174.191)">
                  <rect id="Rectángulo_36519" data-name="Rectángulo 36519" width="7.44" height="359.418"/>
                </g>
                <g id="Grupo_110244" data-name="Grupo 110244" transform="translate(914.241 174.191)">
                  <rect id="Rectángulo_36520" data-name="Rectángulo 36520" width="29.752" height="359.418"/>
                </g>
                <g id="Grupo_110245" data-name="Grupo 110245" transform="translate(609.739 174.191)">
                  <rect id="Rectángulo_36521" data-name="Rectángulo 36521" width="7.44" height="456.601"/>
                </g>
                <g id="Grupo_110246" data-name="Grupo 110246" transform="translate(637.314 174.191)">
                  <rect id="Rectángulo_36522" data-name="Rectángulo 36522" width="7.437" height="456.601"/>
                </g>
                <path id="Trazado_168918" data-name="Trazado 168918" d="M576.487,164.411l4.376-5.623a22.588,22.588,0,0,0,16.983,7.92c8.024,0,13.755-4.795,13.755-12.191,0-7.923-5.416-13.241-21.247-13.241v-6.565c14.165,0,18.858-5.42,18.858-12.4,0-6.467-4.379-10.516-11.461-10.516a20.169,20.169,0,0,0-14.165,6.775L579,113.15a27.361,27.361,0,0,1,19.068-8.33c11.563,0,19.9,6.143,19.9,16.872,0,8.028-4.893,13.133-12.086,15.843v.416a17.149,17.149,0,0,1,14.374,16.881c0,11.766-9.688,18.959-21.863,18.959a28.253,28.253,0,0,1-21.909-9.38Z" transform="translate(176.897 448.959)"/>
                <path id="Trazado_168919" data-name="Trazado 168919" d="M512.291,167.332c20.016-19.9,31.258-31.88,31.258-42.612,0-7.612-4.173-13.022-12.61-13.022a19.566,19.566,0,0,0-14.165,8.006l-4.905-4.9c5.543-6.042,11.465-10.1,20.114-10.1,12.29,0,19.9,7.809,19.9,19.584,0,12.5-11.353,24.9-27.1,41.368,3.646-.308,7.7-.616,11.15-.616H555.2v7.39h-42.91Z" transform="translate(-116.032 448.436)" fill="#afafaf"/>
                <path id="Trazado_168920" data-name="Trazado 168920" d="M585.808,163.7l4.159-5.623a22.634,22.634,0,0,0,16.779,7.606,14.349,14.349,0,0,0,14.587-15.212c0-9.173-5.629-14.593-14.165-14.593a18.68,18.68,0,0,0-11.354,4.068l-4.591-2.919,2.193-31.985h33.232v7.39H600.915l-1.765,19.708a20.433,20.433,0,0,1,10.2-2.71c11.359,0,20.632,6.467,20.632,20.841a21.734,21.734,0,0,1-22.4,22.5,29.127,29.127,0,0,1-21.776-9.075Z" transform="translate(219.148 449.981)"/>
                <path id="Trazado_168921" data-name="Trazado 168921" d="M508.792,112.211h-33.13v-7.39h42.821v5.309c-15.735,20.114-18.959,35.215-20.108,61.161h-8.856C490.667,146.277,495.665,130.443,508.792,112.211Z" transform="translate(-279.7 448.961)"/>
                <path id="Trazado_168922" data-name="Trazado 168922" d="M526.878,112.211h-33.13v-7.39h42.8v5.309c-15.732,20.114-18.956,35.215-20.1,61.161h-8.856C508.753,146.277,513.751,130.443,526.878,112.211Z" transform="translate(-198.185 448.961)"/>
                <g id="Grupo_110247" data-name="Grupo 110247" transform="translate(966.145 174.191)">
                  <rect id="Rectángulo_36523" data-name="Rectángulo 36523" width="7.44" height="456.601"/>
                </g>
                <g id="Grupo_110248" data-name="Grupo 110248" transform="translate(993.182 174.191)">
                  <rect id="Rectángulo_36524" data-name="Rectángulo 36524" width="7.44" height="456.601"/>
                </g>
                <path id="Trazado_168923" data-name="Trazado 168923" d="M502.912,139.1c0-22.3,8.025-34.279,21.362-34.279,13.241,0,21.247,11.979,21.247,34.279s-8.028,34.692-21.247,34.692C510.919,173.791,502.912,161.39,502.912,139.1Zm34.276,0c0-19.492-5.207-27.406-12.915-27.406-7.816,0-13.022,7.917-13.022,27.406s5.207,27.812,13.022,27.812c7.7,0,12.905-8.333,12.905-27.812Z" transform="translate(-156.64 448.959)"/>
                <path id="Trazado_168924" data-name="Trazado 168924" d="M520.67,139.1c0-22.3,8.028-34.279,21.361-34.279,13.241,0,21.247,11.979,21.247,34.279s-8.028,34.692-21.247,34.692C528.7,173.791,520.67,161.39,520.67,139.1Zm34.279,0c0-19.492-5.21-27.406-12.933-27.406-7.815,0-13.023,7.917-13.023,27.406s5.207,27.812,13.023,27.812C549.739,166.911,554.949,158.579,554.949,139.1Z" transform="translate(-76.137 448.959)" fill="#afafaf"/>
                <path id="Trazado_168925" data-name="Trazado 168925" d="M529.856,139.1c0-22.3,8.025-34.279,21.361-34.279,13.241,0,21.248,11.979,21.248,34.279s-8.025,34.692-21.248,34.692C537.881,173.791,529.856,161.39,529.856,139.1Zm34.276,0c0-19.492-5.207-27.406-12.915-27.406-7.815,0-13.022,7.917-13.022,27.406s5.207,27.812,13.022,27.812C558.925,166.911,564.132,158.579,564.132,139.1Z" transform="translate(-34.495 448.959)" fill="#afafaf"/>
                <path id="Trazado_168926" data-name="Trazado 168926" d="M558.511,139.1c0-22.3,8.025-34.279,21.361-34.279,13.241,0,21.247,11.979,21.247,34.279s-8.028,34.692-21.247,34.692C566.548,173.791,558.511,161.39,558.511,139.1Zm34.279,0c0-19.492-5.21-27.406-12.933-27.406-7.815,0-13.023,7.917-13.023,27.406s5.207,27.812,13.023,27.812c7.723,0,12.927-8.333,12.927-27.812Z" transform="translate(95.407 448.959)"/>
                <path id="Trazado_168927" data-name="Trazado 168927" d="M567.693,139.1c0-22.3,8.028-34.279,21.365-34.279C602.3,104.82,610.3,116.8,610.3,139.1s-8.028,34.692-21.247,34.692C575.73,173.791,567.693,161.39,567.693,139.1Zm34.279,0c0-19.492-5.207-27.406-12.915-27.406-7.818,0-13.025,7.917-13.025,27.406s5.207,27.812,13.025,27.812c7.735,0,12.939-8.333,12.939-27.812Z" transform="translate(137.034 448.959)"/>
                <path id="Trazado_168928" data-name="Trazado 168928" d="M595.462,139.134c0-22.3,8.028-34.276,21.362-34.276,13.241,0,21.247,11.975,21.247,34.276s-8.028,34.692-21.247,34.692C603.5,173.826,595.462,161.428,595.462,139.134Zm34.279,0c0-19.489-5.21-27.406-12.933-27.406-7.815,0-13.022,7.917-13.022,27.406s5.207,27.812,13.022,27.812c7.723,0,12.927-8.33,12.927-27.812Z" transform="translate(262.917 449.133)"/>
                <path id="Trazado_168929" data-name="Trazado 168929" d="M568.956,152.94H539.049v-5.623L567.5,104.822h9.58v41.263h9.065v6.873h-9.065v18.325h-8.12Zm0-6.873V126.79c0-3.538.308-9.269.514-12.813h-.412c-1.672,3.233-3.544,6.159-5.419,9.377l-15.523,22.713Z" transform="translate(7.176 448.969)"/>
                <path id="Trazado_168930" data-name="Trazado 168930" d="M604.655,155.558c0-8.653,6.255-14.587,12.5-17.922v-.422a18.842,18.842,0,0,1-9.269-15.31c0-10.214,8.126-17.084,18.854-17.084,11.566,0,18.756,7.39,18.756,17.709,0,6.981-5.105,12.933-9.167,16.043v.416c5.934,3.443,11.563,8.129,11.563,17.093,0,9.891-8.542,17.709-21.463,17.709C613.954,173.791,604.655,166.083,604.655,155.558Zm35.012.209c0-8.548-8.44-11.674-18.029-15.529-5.312,3.544-9.269,8.44-9.269,14.473,0,7.39,6.158,12.711,14.272,12.711,7.729.009,13.025-4.782,13.025-11.655Zm-1.57-32.826a11.086,11.086,0,0,0-11.563-11.766A10.28,10.28,0,0,0,615.8,121.9c0,7.917,7.292,11.252,15.311,14.374a17.888,17.888,0,0,0,6.981-13.33Z" transform="translate(304.591 448.959)"/>
              </g>
              <path id="Trazado_169675" data-name="Trazado 169675" d="M51.281,33.587a15.991,15.991,0,0,1-2.463,8.074,14.882,14.882,0,0,1-6.346,5.426,21.555,21.555,0,0,1-9.306,1.925,17.2,17.2,0,0,1-13.592-5.623,23.218,23.218,0,0,1-4.961-15.877V25.356a26.5,26.5,0,0,1,2.242-11.261,16.976,16.976,0,0,1,6.451-7.458,18,18,0,0,1,9.743-2.63,18.873,18.873,0,0,1,12.81,4.182,16.576,16.576,0,0,1,5.512,11.563H40.846a7.843,7.843,0,0,0-2.014-5.743,8.286,8.286,0,0,0-5.774-1.743,6.306,6.306,0,0,0-5.774,2.947,18.941,18.941,0,0,0-1.925,9.413v3.1a20.958,20.958,0,0,0,1.758,10.014,6.439,6.439,0,0,0,6.06,3.008,8.1,8.1,0,0,0,5.564-1.715,7.276,7.276,0,0,0,2.045-5.444Zm3.249-1.743a19.2,19.2,0,0,1,1.894-8.674,13.549,13.549,0,0,1,5.447-5.86,16.391,16.391,0,0,1,8.314-2.039A14.959,14.959,0,0,1,81.7,19.8a17.367,17.367,0,0,1,4.209,12.317v.36a16.85,16.85,0,0,1-4.225,12.074,15,15,0,0,1-11.443,4.465A15.172,15.172,0,0,1,59.1,44.848a16.289,16.289,0,0,1-4.542-11.292Zm10.134.631a12.108,12.108,0,0,0,1.413,6.614A4.708,4.708,0,0,0,70.256,41.2q5.413,0,5.543-8.33V31.844q0-8.751-5.592-8.751-5.081,0-5.5,7.547ZM71.58,2.221H82.287l-8.36,9.441H65.656ZM89.111,31.9a19.877,19.877,0,0,1,3.338-12.179,10.987,10.987,0,0,1,9.321-4.45,9.346,9.346,0,0,1,7.338,3.427V2.221H119.27V48.41h-9.109l-.511-3.489a9.6,9.6,0,0,1-7.938,4.1,10.969,10.969,0,0,1-9.2-4.465,20.5,20.5,0,0,1-3.4-12.659Zm10.134.631q0,8.662,5.053,8.662a4.989,4.989,0,0,0,4.813-2.827V25.978a4.853,4.853,0,0,0-4.751-2.885q-4.69,0-5.081,7.578ZM135.722,48.41H125.561V15.874h10.162ZM124.945,7.455a4.564,4.564,0,0,1,1.564-3.569,6.617,6.617,0,0,1,8.12,0A4.563,4.563,0,0,1,136.2,7.455a4.563,4.563,0,0,1-1.564,3.569,6.617,6.617,0,0,1-8.12,0,4.564,4.564,0,0,1-1.561-3.569ZM140.763,31.9a21.969,21.969,0,0,1,1.623-8.721,13.072,13.072,0,0,1,4.662-5.851,12.287,12.287,0,0,1,7.067-2.06,9.771,9.771,0,0,1,7.939,3.427l.36-2.827h9.2V47.179a13.719,13.719,0,0,1-2,7.474,12.831,12.831,0,0,1-5.789,4.871,21.279,21.279,0,0,1-8.782,1.7,18.356,18.356,0,0,1-6.932-1.352,12.511,12.511,0,0,1-5.127-3.52l4.24-5.955a9.293,9.293,0,0,0,7.458,3.338,6.035,6.035,0,0,0,6.738-6.916V45.793a9.515,9.515,0,0,1-7.357,3.233,11.76,11.76,0,0,1-9.623-4.554,18.876,18.876,0,0,1-3.667-12.194Zm10.162.631a11.575,11.575,0,0,0,1.5,6.331,4.745,4.745,0,0,0,4.209,2.331,5.383,5.383,0,0,0,4.782-2.2V25.316a5.235,5.235,0,0,0-4.721-2.226,4.776,4.776,0,0,0-4.24,2.42,13.2,13.2,0,0,0-1.521,7.024Zm25.17-.693a19.2,19.2,0,0,1,1.894-8.674,13.549,13.549,0,0,1,5.444-5.851,16.391,16.391,0,0,1,8.33-2.045A14.959,14.959,0,0,1,203.28,19.8a17.368,17.368,0,0,1,4.209,12.317v.36a16.85,16.85,0,0,1-4.225,12.074,15,15,0,0,1-11.443,4.465,15.172,15.172,0,0,1-11.156-4.166,16.29,16.29,0,0,1-4.542-11.292Zm10.134.631a12.108,12.108,0,0,0,1.413,6.614,4.708,4.708,0,0,0,4.179,2.106q5.413,0,5.543-8.33V31.841q0-8.751-5.592-8.751-5.081,0-5.5,7.547ZM254.9,29.827H238.316V40.3h19.606V48.41h-30.15V4.626h30.22v8.151H238.316v9.238h16.6Zm32.176,10.405H272.6l-2.488,8.179H258.837L274.9,4.626h9.919L301,48.41H289.658ZM275.163,32.09h9.413L279.856,16.9Zm65.59,16.32H330.258L314.742,21.165V48.41H304.183V4.626h10.556l15.486,27.246V4.626H340.75Zm26.011-14.975H348.691V25.623h18.073ZM396.941,48.41H386.779V16.053L376.8,18.969v-7.7l19.215-6.645h.924ZM419.4,22.279h4.782a4.97,4.97,0,0,0,5.684-5.564,4.81,4.81,0,0,0-1.352-3.532,5.13,5.13,0,0,0-3.818-1.367,5.494,5.494,0,0,0-3.5,1.173,3.578,3.578,0,0,0-1.487,2.916H409.576A10.374,10.374,0,0,1,411.5,9.746a12.708,12.708,0,0,1,5.336-4.225A18.248,18.248,0,0,1,424.341,4a17.931,17.931,0,0,1,11.486,3.338,11.085,11.085,0,0,1,4.185,9.164,9.239,9.239,0,0,1-1.731,5.336,12.318,12.318,0,0,1-5.044,4.089,11.772,11.772,0,0,1,5.472,3.834,10.1,10.1,0,0,1,1.986,6.359,11.3,11.3,0,0,1-4.511,9.383,18.722,18.722,0,0,1-11.849,3.52,19.418,19.418,0,0,1-7.985-1.638,12.508,12.508,0,0,1-5.58-4.542,11.806,11.806,0,0,1-1.894-6.6h10.2a4.563,4.563,0,0,0,1.622,3.488,5.734,5.734,0,0,0,4,1.475,6,6,0,0,0,4.271-1.487,4.976,4.976,0,0,0,1.6-3.8,5.817,5.817,0,0,0-1.654-4.69,6.913,6.913,0,0,0-4.57-1.383h-4.927Z" transform="translate(389.554 47.061)" fill="#12263f"/>
            </g>
          </g>
        </g>
      </g>
    </g>
    <g id="Grupo_1100628" data-name="Grupo 1100628" transform="translate(0 50.658)">
      <g id="Grupo_1100013" data-name="Grupo 1100013" transform="translate(-137.5 -56.709)">
        <g id="Grupo_110604-2" data-name="Grupo 110604" transform="translate(422.5 5001.594)">
          <g id="Grupo_110603-2" data-name="Grupo 110603" transform="translate(0 0)">
            <g id="Grupo_110249-2" data-name="Grupo 110249" transform="translate(0)">
              <g transform="matrix(1, 0, 0, 1, -105, -105.88)" filter="url(#Trazado_168917-2)">
                <path id="Trazado_168917-4" data-name="Trazado 168917" d="M1436.106,372.125a16.4,16.4,0,0,1-16.577,16.125H842.692a16.4,16.4,0,0,1-16.577-16.125V56.013a16.405,16.405,0,0,1,16.577-16.128h576.847a16.405,16.405,0,0,1,16.577,16.128Z" transform="translate(-721.11 66)" fill="#fff"/>
              </g>
              <g id="Grupo_110221-2" data-name="Grupo 110221" transform="translate(123.625 78.499)">
                <rect id="Rectángulo_36497-2" data-name="Rectángulo 36497" width="3.108" height="190.818"/>
              </g>
              <g id="Grupo_110222-2" data-name="Grupo 110222" transform="translate(137.297 78.499)">
                <rect id="Rectángulo_36498-2" data-name="Rectángulo 36498" width="3.108" height="190.818"/>
              </g>
              <g id="Grupo_110223-2" data-name="Grupo 110223" transform="translate(161.664 77.258)">
                <rect id="Rectángulo_36499-2" data-name="Rectángulo 36499" width="3.108" height="150.204"/>
              </g>
              <g id="Grupo_110224-2" data-name="Grupo 110224" transform="translate(428.319 77.258)">
                <rect id="Rectángulo_36500-2" data-name="Rectángulo 36500" width="3.108" height="150.204"/>
              </g>
              <g id="Grupo_110225-2" data-name="Grupo 110225" transform="translate(355.31 77.258)">
                <rect id="Rectángulo_36501-2" data-name="Rectángulo 36501" width="3.109" height="150.204"/>
              </g>
              <g id="Grupo_110226-2" data-name="Grupo 110226" transform="translate(375.162 77.258)">
                <rect id="Rectángulo_36502-2" data-name="Rectángulo 36502" width="3.109" height="150.204"/>
              </g>
              <g id="Grupo_110227-2" data-name="Grupo 110227" transform="translate(438.367 77.258)">
                <rect id="Rectángulo_36503-2" data-name="Rectángulo 36503" width="3.108" height="150.204"/>
              </g>
              <g id="Grupo_110228-2" data-name="Grupo 110228" transform="translate(209.265 77.258)">
                <rect id="Rectángulo_36504-2" data-name="Rectángulo 36504" width="3.108" height="150.204"/>
              </g>
              <g id="Grupo_110229-2" data-name="Grupo 110229" transform="translate(397.904 77.258)">
                <rect id="Rectángulo_36505-2" data-name="Rectángulo 36505" width="3.108" height="150.204"/>
              </g>
              <g id="Grupo_110230-2" data-name="Grupo 110230" transform="translate(365.985 77.258)">
                <rect id="Rectángulo_36506-2" data-name="Rectángulo 36506" width="1.555" height="150.204"/>
              </g>
              <g id="Grupo_110231-2" data-name="Grupo 110231" transform="translate(280.464 77.258)">
                <rect id="Rectángulo_36507-2" data-name="Rectángulo 36507" width="1.555" height="150.204"/>
              </g>
              <g id="Grupo_110232-2" data-name="Grupo 110232" transform="translate(407.516 77.258)">
                <rect id="Rectángulo_36508-2" data-name="Rectángulo 36508" width="1.555" height="150.204"/>
              </g>
              <g id="Grupo_110233-2" data-name="Grupo 110233" transform="translate(146.454 77.258)">
                <rect id="Rectángulo_36509-2" data-name="Rectángulo 36509" width="1.555" height="150.204"/>
              </g>
              <g id="Grupo_110234-2" data-name="Grupo 110234" transform="translate(385.393 77.258)">
                <rect id="Rectángulo_36510-2" data-name="Rectángulo 36510" width="6.217" height="150.204"/>
              </g>
              <g id="Grupo_110235-2" data-name="Grupo 110235" transform="translate(414.848 77.258)">
                <rect id="Rectángulo_36511-2" data-name="Rectángulo 36511" width="6.217" height="150.204"/>
              </g>
              <g id="Grupo_110236-2" data-name="Grupo 110236" transform="translate(171.985 77.258)">
                <rect id="Rectángulo_36512-2" data-name="Rectángulo 36512" width="9.326" height="150.204"/>
              </g>
              <g id="Grupo_110237-2" data-name="Grupo 110237" transform="translate(226.336 77.258)">
                <rect id="Rectángulo_36513-2" data-name="Rectángulo 36513" width="12.434" height="150.204"/>
              </g>
              <g id="Grupo_110238-2" data-name="Grupo 110238" transform="translate(330.201 77.258)">
                <rect id="Rectángulo_36514-2" data-name="Rectángulo 36514" width="12.434" height="150.204"/>
              </g>
              <g id="Grupo_110239-2" data-name="Grupo 110239" transform="translate(249.896 77.258)">
                <rect id="Rectángulo_36515-2" data-name="Rectángulo 36515" width="3.108" height="150.204"/>
              </g>
              <g id="Grupo_110240-2" data-name="Grupo 110240" transform="translate(194.159 77.258)">
                <rect id="Rectángulo_36516-2" data-name="Rectángulo 36516" width="3.108" height="150.204"/>
              </g>
              <g id="Grupo_110241-2" data-name="Grupo 110241" transform="translate(269.747 77.258)">
                <rect id="Rectángulo_36517-2" data-name="Rectángulo 36517" width="3.108" height="150.204"/>
              </g>
              <g id="Grupo_110242-2" data-name="Grupo 110242" transform="translate(203.272 77.258)">
                <rect id="Rectángulo_36518-2" data-name="Rectángulo 36518" width="3.109" height="150.204"/>
              </g>
              <g id="Grupo_110243-2" data-name="Grupo 110243" transform="translate(289.602 77.258)">
                <rect id="Rectángulo_36519-2" data-name="Rectángulo 36519" width="3.109" height="150.204"/>
              </g>
              <g id="Grupo_110244-2" data-name="Grupo 110244" transform="translate(454.517 77.258)">
                <rect id="Rectángulo_36520-2" data-name="Rectángulo 36520" width="12.434" height="150.204"/>
              </g>
              <g id="Grupo_110245-2" data-name="Grupo 110245" transform="translate(302.253 78.499)">
                <rect id="Rectángulo_36521-2" data-name="Rectángulo 36521" width="3.109" height="190.818"/>
              </g>
              <g id="Grupo_110246-2" data-name="Grupo 110246" transform="translate(315.922 78.499)">
                <rect id="Rectángulo_36522-2" data-name="Rectángulo 36522" width="3.108" height="190.818"/>
              </g>
              <path id="Trazado_168918-2" data-name="Trazado 168918" d="M1038.43,213.717l1.829-2.35a9.439,9.439,0,0,0,7.1,3.31c3.354,0,5.748-2,5.748-5.095,0-3.311-2.264-5.534-8.88-5.534V201.3c5.92,0,7.881-2.265,7.881-5.182,0-2.7-1.83-4.395-4.79-4.395a8.429,8.429,0,0,0-5.92,2.831l-1.915-2.265a11.434,11.434,0,0,1,7.968-3.481c4.832,0,8.317,2.567,8.317,7.051,0,3.355-2.045,5.489-5.051,6.621v.174a7.167,7.167,0,0,1,6.007,7.055c0,4.917-4.048,7.923-9.137,7.923a11.807,11.807,0,0,1-9.156-3.92Z" transform="translate(-663.179 51.214)"/>
              <path id="Trazado_168919-2" data-name="Trazado 168919" d="M922.211,214.779c8.365-8.318,13.063-13.323,13.063-17.808,0-3.181-1.744-5.442-5.27-5.442a8.177,8.177,0,0,0-5.92,3.346l-2.05-2.046c2.316-2.525,4.791-4.222,8.406-4.222,5.136,0,8.315,3.263,8.315,8.185,0,5.223-4.745,10.406-11.324,17.288,1.524-.129,3.217-.257,4.66-.257h8.053v3.089H922.211Z" transform="translate(-724.885 51.13)"/>
              <path id="Trazado_168920-2" data-name="Trazado 168920" d="M1055.22,213.732l1.739-2.35a9.458,9.458,0,0,0,7.012,3.179,6,6,0,0,0,6.1-6.357c0-3.834-2.353-6.1-5.92-6.1a7.807,7.807,0,0,0-4.745,1.7l-1.918-1.22.916-13.367h13.888v3.089h-10.754l-.737,8.236a8.539,8.539,0,0,1,4.265-1.132c4.747,0,8.622,2.7,8.622,8.71a9.083,9.083,0,0,1-9.363,9.4A12.173,12.173,0,0,1,1055.22,213.732Z" transform="translate(-654.259 51.335)"/>
              <path id="Trazado_168921-2" data-name="Trazado 168921" d="M870.659,191.9H856.813v-3.089h17.9v2.219c-6.576,8.406-7.923,14.717-8.4,25.56h-3.7C863.084,206.139,865.173,199.522,870.659,191.9Z" transform="translate(-774.919 51.185)"/>
              <path id="Trazado_168922-2" data-name="Trazado 168922" d="M903.237,191.9H889.392v-3.089H907.28v2.219c-6.575,8.406-7.922,14.717-8.4,25.56h-3.7C895.663,206.139,897.752,199.522,903.237,191.9Z" transform="translate(-742.195 51.185)"/>
              <g id="Grupo_110247-2" data-name="Grupo 110247" transform="translate(478.926 78.499)">
                <rect id="Rectángulo_36523-2" data-name="Rectángulo 36523" width="3.109" height="190.818"/>
              </g>
              <g id="Grupo_110248-2" data-name="Grupo 110248" transform="translate(510.309 78.499)">
                <rect id="Rectángulo_36524-2" data-name="Rectángulo 36524" width="3.109" height="190.818"/>
              </g>
              <path id="Trazado_168923-2" data-name="Trazado 168923" d="M905.9,203.139c0-9.32,3.354-14.326,8.927-14.326,5.534,0,8.88,5.006,8.88,14.326s-3.355,14.5-8.88,14.5C909.246,217.636,905.9,212.454,905.9,203.139Zm14.324,0c0-8.146-2.176-11.453-5.4-11.453-3.266,0-5.442,3.309-5.442,11.453s2.176,11.623,5.442,11.623c3.217,0,5.393-3.482,5.393-11.623Z" transform="translate(-733.453 51.214)"/>
              <path id="Trazado_168924-2" data-name="Trazado 168924" d="M937.888,203.139c0-9.32,3.355-14.326,8.927-14.326,5.534,0,8.879,5.006,8.879,14.326s-3.355,14.5-8.879,14.5C941.243,217.636,937.888,212.454,937.888,203.139Zm14.325,0c0-8.146-2.177-11.453-5.4-11.453-3.266,0-5.442,3.309-5.442,11.453s2.176,11.623,5.442,11.623C950.036,214.762,952.213,211.279,952.213,203.139Z" transform="translate(-716.506 51.214)"/>
              <path id="Trazado_168925-2" data-name="Trazado 168925" d="M954.434,203.139c0-9.32,3.354-14.326,8.927-14.326,5.534,0,8.88,5.006,8.88,14.326s-3.354,14.5-8.88,14.5C957.788,217.636,954.434,212.454,954.434,203.139Zm14.324,0c0-8.146-2.176-11.453-5.4-11.453-3.266,0-5.442,3.309-5.442,11.453s2.176,11.623,5.442,11.623C966.582,214.762,968.758,211.279,968.758,203.139Z" transform="translate(-707.74 51.214)"/>
              <path id="Trazado_168926-2" data-name="Trazado 168926" d="M1006.05,203.139c0-9.32,3.354-14.326,8.927-14.326,5.534,0,8.88,5.006,8.88,14.326s-3.355,14.5-8.88,14.5C1009.409,217.636,1006.05,212.454,1006.05,203.139Zm14.326,0c0-8.146-2.177-11.453-5.4-11.453-3.266,0-5.442,3.309-5.442,11.453s2.176,11.623,5.442,11.623c3.227,0,5.4-3.482,5.4-11.623Z" transform="translate(-680.393 51.214)"/>
              <path id="Trazado_168927-2" data-name="Trazado 168927" d="M1022.59,203.139c0-9.32,3.355-14.326,8.928-14.326,5.534,0,8.879,5.006,8.879,14.326s-3.355,14.5-8.879,14.5C1025.949,217.636,1022.59,212.454,1022.59,203.139Zm14.326,0c0-8.146-2.176-11.453-5.4-11.453-3.267,0-5.443,3.309-5.443,11.453s2.176,11.623,5.443,11.623c3.233,0,5.407-3.482,5.407-11.623Z" transform="translate(-671.629 51.214)"/>
              <path id="Trazado_168928-2" data-name="Trazado 168928" d="M1072.61,203.206c0-9.32,3.355-14.324,8.927-14.324,5.534,0,8.879,5,8.879,14.324s-3.355,14.5-8.879,14.5C1075.969,217.7,1072.61,212.523,1072.61,203.206Zm14.326,0c0-8.145-2.177-11.453-5.405-11.453-3.266,0-5.442,3.309-5.442,11.453s2.176,11.623,5.442,11.623c3.228,0,5.4-3.481,5.4-11.623Z" transform="translate(-645.129 51.237)"/>
              <path id="Trazado_168929-2" data-name="Trazado 168929" d="M983.492,208.926h-12.5v-2.35l11.888-17.759h4v17.244h3.789v2.872h-3.789v7.658h-3.393Zm0-2.872V198c0-1.479.129-3.873.215-5.355h-.172c-.7,1.351-1.481,2.574-2.265,3.919l-6.487,9.492Z" transform="translate(-698.803 51.186)"/>
              <path id="Trazado_168930-2" data-name="Trazado 168930" d="M1089.17,210.017c0-3.616,2.614-6.1,5.225-7.49v-.176a7.875,7.875,0,0,1-3.873-6.4c0-4.269,3.4-7.14,7.879-7.14,4.834,0,7.838,3.089,7.838,7.4,0,2.917-2.134,5.4-3.831,6.7v.174c2.48,1.439,4.832,3.4,4.832,7.143,0,4.133-3.57,7.4-8.969,7.4C1093.056,217.636,1089.17,214.415,1089.17,210.017Zm14.632.087c0-3.572-3.527-4.879-7.535-6.49-2.22,1.481-3.873,3.527-3.873,6.048,0,3.089,2.574,5.312,5.965,5.312,3.23,0,5.443-2,5.443-4.871Zm-.656-13.718a4.633,4.633,0,0,0-4.832-4.917,4.3,4.3,0,0,0-4.484,4.483c0,3.309,3.048,4.7,6.4,6.007a7.476,7.476,0,0,0,2.917-5.571Z" transform="translate(-636.318 51.214)"/>
            </g>
            <path id="Trazado_169675-2" data-name="Trazado 169675" d="M41.581,17.108a6.683,6.683,0,0,1-1.029,3.374A6.219,6.219,0,0,1,37.9,22.75a9.008,9.008,0,0,1-3.889.8,7.186,7.186,0,0,1-5.68-2.35,9.7,9.7,0,0,1-2.073-6.635v-.9a11.076,11.076,0,0,1,.937-4.706,7.1,7.1,0,0,1,2.7-3.117,7.521,7.521,0,0,1,4.072-1.1,7.887,7.887,0,0,1,5.353,1.748,6.927,6.927,0,0,1,2.3,4.832h-4.4a3.278,3.278,0,0,0-.842-2.4A3.463,3.463,0,0,0,33.966,8.2a2.636,2.636,0,0,0-2.413,1.232,7.916,7.916,0,0,0-.8,3.934v1.295a8.758,8.758,0,0,0,.735,4.185A2.691,2.691,0,0,0,34.016,20.1a3.387,3.387,0,0,0,2.325-.717,3.041,3.041,0,0,0,.854-2.275Zm1.358-.728a8.025,8.025,0,0,1,.791-3.625,5.662,5.662,0,0,1,2.276-2.449,6.85,6.85,0,0,1,3.475-.852,6.252,6.252,0,0,1,4.813,1.892,7.258,7.258,0,0,1,1.759,5.148v.151a7.042,7.042,0,0,1-1.766,5.046,6.268,6.268,0,0,1-4.782,1.866,6.34,6.34,0,0,1-4.657-1.741,6.808,6.808,0,0,1-1.9-4.719Zm4.235.264a5.06,5.06,0,0,0,.591,2.764,1.968,1.968,0,0,0,1.746.88q2.262,0,2.316-3.481V16.38q0-3.657-2.337-3.657-2.123,0-2.3,3.154ZM50.065,4h4.474L51.045,7.946H47.589Zm7.326,12.4a8.307,8.307,0,0,1,1.395-5.09,4.592,4.592,0,0,1,3.9-1.86,3.906,3.906,0,0,1,3.067,1.432V4h4.247V23.3H66.188l-.214-1.458a4.01,4.01,0,0,1-3.318,1.715,4.584,4.584,0,0,1-3.845-1.866,8.569,8.569,0,0,1-1.421-5.29Zm4.235.264q0,3.62,2.112,3.62a2.085,2.085,0,0,0,2.011-1.181V13.928a2.028,2.028,0,0,0-1.986-1.206q-1.96,0-2.123,3.167ZM76.87,23.3H72.624V9.706H76.87Zm-4.5-17.115A1.907,1.907,0,0,1,73.02,4.7a2.765,2.765,0,0,1,3.393,0,1.907,1.907,0,0,1,.658,1.491,1.907,1.907,0,0,1-.654,1.491,2.765,2.765,0,0,1-3.393,0,1.907,1.907,0,0,1-.652-1.491ZM78.977,16.4a9.181,9.181,0,0,1,.678-3.644A5.463,5.463,0,0,1,81.6,10.315a5.135,5.135,0,0,1,2.953-.861,4.083,4.083,0,0,1,3.318,1.432L88.025,9.7H91.87V22.788a5.733,5.733,0,0,1-.835,3.123,5.362,5.362,0,0,1-2.419,2.036,8.892,8.892,0,0,1-3.67.71,7.671,7.671,0,0,1-2.9-.565,5.229,5.229,0,0,1-2.143-1.471l1.772-2.489a3.884,3.884,0,0,0,3.117,1.395,2.522,2.522,0,0,0,2.816-2.89v-.429a3.976,3.976,0,0,1-3.074,1.351,4.915,4.915,0,0,1-4.021-1.9,7.889,7.889,0,0,1-1.533-5.1Zm4.247.264a4.837,4.837,0,0,0,.628,2.646,1.983,1.983,0,0,0,1.759.974,2.249,2.249,0,0,0,2-.918V13.652a2.188,2.188,0,0,0-1.973-.93,2,2,0,0,0-1.772,1.011,5.517,5.517,0,0,0-.636,2.935Zm10.519-.29a8.025,8.025,0,0,1,.791-3.625,5.662,5.662,0,0,1,2.275-2.445,6.85,6.85,0,0,1,3.481-.854,6.252,6.252,0,0,1,4.813,1.892,7.258,7.258,0,0,1,1.759,5.148v.151a7.042,7.042,0,0,1-1.766,5.046,6.268,6.268,0,0,1-4.782,1.866,6.34,6.34,0,0,1-4.662-1.741,6.808,6.808,0,0,1-1.9-4.719Zm4.235.264a5.06,5.06,0,0,0,.591,2.764,1.968,1.968,0,0,0,1.746.88q2.262,0,2.316-3.481v-.427q0-3.657-2.337-3.657-2.123,0-2.3,3.154Zm28.7-1.105h-6.93v4.375h8.194V23.3h-12.6V5.005h12.629V8.411h-8.223v3.861h6.938Zm13.447,4.348h-6.048l-1.04,3.418h-4.713l6.711-18.3h4.145l6.763,18.3H141.2Zm-4.978-3.4h3.934L137.1,10.133Zm27.41,6.82h-4.386l-6.485-11.386V23.3h-4.413V5.005h4.411l6.472,11.386V5.005h4.4Zm10.87-6.258h-7.553V13.78h7.553ZM186.036,23.3h-4.247V9.781L177.617,11V7.782l8.03-2.777h.386Zm9.388-10.92h2a2.077,2.077,0,0,0,2.376-2.325,2.01,2.01,0,0,0-.565-1.476,2.144,2.144,0,0,0-1.6-.571,2.3,2.3,0,0,0-1.464.49,1.5,1.5,0,0,0-.622,1.219h-4.235a4.336,4.336,0,0,1,.8-2.574,5.311,5.311,0,0,1,2.23-1.766,7.626,7.626,0,0,1,3.136-.634,7.493,7.493,0,0,1,4.8,1.395,4.633,4.633,0,0,1,1.749,3.83,3.861,3.861,0,0,1-.723,2.23,5.148,5.148,0,0,1-2.108,1.709,4.92,4.92,0,0,1,2.287,1.6,4.22,4.22,0,0,1,.83,2.657,4.722,4.722,0,0,1-1.885,3.921,7.824,7.824,0,0,1-4.952,1.471,8.115,8.115,0,0,1-3.337-.685,5.227,5.227,0,0,1-2.332-1.9,4.934,4.934,0,0,1-.791-2.759h4.261a1.907,1.907,0,0,0,.678,1.458,2.4,2.4,0,0,0,1.673.617,2.509,2.509,0,0,0,1.785-.622,2.08,2.08,0,0,0,.667-1.589,2.431,2.431,0,0,0-.691-1.96,2.889,2.889,0,0,0-1.91-.578h-2.059Z" transform="translate(190.428 16.595)" fill="#12263f"/>
          </g>
        </g>
        <g id="Grupo_1100634" data-name="Grupo 1100634">
          <g id="Grupo_1100629" data-name="Grupo 1100629" transform="translate(712.425 5149.757)">
            <circle id="Elipse_4708" data-name="Elipse 4708" cx="15.075" cy="15.075" r="15.075" transform="translate(0)" fill="#38ce65"/>
            <circle id="Elipse_4709" data-name="Elipse 4709" cx="9.045" cy="9.045" r="9.045" transform="translate(6.03 6.03)" fill="#fff"/>
          </g>
          <g id="Grupo_1100630" data-name="Grupo 1100630" transform="translate(543.504 5294.559)">
            <circle id="Elipse_4708-2" data-name="Elipse 4708" cx="15.075" cy="15.075" r="15.075" transform="translate(0)" fill="#38ce65"/>
            <circle id="Elipse_4709-2" data-name="Elipse 4709" cx="9.045" cy="9.045" r="9.045" transform="translate(6.03 6.03)" fill="#fff"/>
          </g>
          <g id="Grupo_1100631" data-name="Grupo 1100631" transform="translate(652.146 5294.797)">
            <ellipse id="Elipse_4708-3" data-name="Elipse 4708" cx="15.5" cy="15" rx="15.5" ry="15" fill="#38ce65"/>
            <ellipse id="Elipse_4709-3" data-name="Elipse 4709" cx="9.5" cy="9" rx="9.5" ry="9" transform="translate(6 6)" fill="#fff"/>
          </g>
          <g id="Grupo_1100632" data-name="Grupo 1100632" transform="translate(790.777 5294.559)">
            <circle id="Elipse_4708-4" data-name="Elipse 4708" cx="15.075" cy="15.075" r="15.075" transform="translate(0)" fill="#38ce65"/>
            <circle id="Elipse_4709-4" data-name="Elipse 4709" cx="9.045" cy="9.045" r="9.045" transform="translate(6.03 6.03)" fill="#fff"/>
          </g>
          <g id="Grupo_1100633" data-name="Grupo 1100633" transform="translate(869.381 5294.559)">
            <circle id="Elipse_4708-5" data-name="Elipse 4708" cx="15.075" cy="15.075" r="15.075" transform="translate(0)" fill="#38ce65"/>
            <circle id="Elipse_4709-5" data-name="Elipse 4709" cx="9.045" cy="9.045" r="9.045" transform="translate(6.03 6.03)" fill="#fff"/>
          </g>
        </g>
      </g>
      <path id="Trazado_875540" data-name="Trazado 875540" d="M-7449.333-6501.333v26.667h122.667v-26.667" transform="translate(7805.938 11700)" fill="none" stroke="#fe8938" stroke-width="2"/>
      <path id="Trazado_875541" data-name="Trazado 875541" d="M-7449.333-6501.333v26.667H-7348.6v-26.667" transform="translate(7928.604 11700)" fill="none" stroke="#fe8938" stroke-width="2"/>
      <path id="Trazado_875542" data-name="Trazado 875542" d="M-7449.333-6501.333v26.667H-7324v-26.667" transform="translate(8056.604 11700)" fill="none" stroke="#fe8938" stroke-width="2"/>
      <path id="Trazado_875543" data-name="Trazado 875543" d="M-7449.333-6501.333v26.667h26.667v-26.667" transform="translate(8181.937 11700)" fill="none" stroke="#fe8938" stroke-width="2"/>
    </g>
  </g>
</svg>
