<svg xmlns="http://www.w3.org/2000/svg" width="146.559" height="129.374" viewBox="0 0 146.559 129.374">
  <g id="Grupo_1100679" data-name="Grupo 1100679" transform="translate(-1020 -4595.653)">
    <rect id="Rectángulo_401023" data-name="Rectángulo 401023" width="126.094" height="129.373" rx="20" transform="translate(1020 4595.653)" fill="#1e3a8a"/>
    <rect id="Rectángulo_401024" data-name="Rectángulo 401024" width="123.264" height="61.816" rx="20" transform="translate(1041.795 4650.722)" fill="none" stroke="#fe8938" stroke-miterlimit="10" stroke-width="3"/>
    <path id="Trazado_874782" data-name="Trazado 874782" d="M116.716,224.541A21.78,21.78,0,0,1,95,202.825V196h43.432v6.825A21.78,21.78,0,0,1,116.716,224.541Z" transform="translate(954.763 4454.606)" fill="#53bced"/>
    <path id="Trazado_874783" data-name="Trazado 874783" d="M26.043,335.21,39.988,332H58.6l13.946,3.21A20.682,20.682,0,0,1,88.59,355.365v11.794H10V355.365A20.682,20.682,0,0,1,26.043,335.21Z" transform="translate(1022.184 4346.734)" fill="#fe8938"/>
    <g id="Grupo_1100325" data-name="Grupo 1100325" transform="translate(1042.938 4705.62)">
      <path id="Trazado_874784" data-name="Trazado 874784" d="M318,462h4.136v8.273H318Z" transform="translate(-265.055 -462)" fill="#ff7b7b"/>
      <path id="Trazado_874785" data-name="Trazado 874785" d="M62,462h4.136v8.273H62Z" transform="translate(-62 -462)" fill="#ff7b7b"/>
    </g>
    <g id="Grupo_1100328" data-name="Grupo 1100328" transform="translate(1058.801 4678.734)">
      <path id="Trazado_874786" data-name="Trazado 874786" d="M142.071,332h18.614l3.371.776-12.678,34.383L138.7,332.776Z" transform="translate(-138.7 -332)" fill="#edeff1"/>
      <path id="Trazado_874787" data-name="Trazado 874787" d="M142.071,332h18.614l3.371.776-6.529,17.706-6.149-7.107-6.149,7.107L138.7,332.776Z" transform="translate(-138.7 -332)" fill="#d4fffe"/>
      <g id="Grupo_1100326" data-name="Grupo 1100326" transform="translate(0)">
        <path id="Trazado_874788" data-name="Trazado 874788" d="M209.307,332l3.371.776-5.994,16.256L200,341.307Z" transform="translate(-187.322 -332)" fill="#edeff1"/>
        <path id="Trazado_874789" data-name="Trazado 874789" d="M142.071,332l-3.371.776,5.994,16.256,6.684-7.724Z" transform="translate(-138.7 -332)" fill="#edeff1"/>
      </g>
      <g id="Grupo_1100327" data-name="Grupo 1100327" transform="translate(8.838 9.307)">
        <path id="Trazado_874790" data-name="Trazado 874790" d="M183.2,414.349h4.136l1.772,7.713-3.84,10.414-3.84-10.414Z" transform="translate(-181.433 -406.625)" fill="#53bced"/>
        <path id="Trazado_874791" data-name="Trazado 874791" d="M190,409.349h4.136v1.034H190Z" transform="translate(-188.228 -402.659)" fill="#53bced"/>
        <path id="Trazado_874792" data-name="Trazado 874792" d="M187.75,377l3.194,3.691-1.126,3h-4.136l-1.126-3Z" transform="translate(-183.91 -377)" fill="#53bced"/>
      </g>
    </g>
    <path id="Trazado_874793" data-name="Trazado 874793" d="M155,294.548V284h18.614v10.548a9.307,9.307,0,1,1-18.614,0Z" transform="translate(907.172 4384.807)" fill="#ffd3b3"/>
    <path id="Trazado_874794" data-name="Trazado 874794" d="M164.307,290.591a23.674,23.674,0,0,1-9.307-1.9V284h18.614v4.689A23.674,23.674,0,0,1,164.307,290.591Z" transform="translate(907.172 4384.807)" fill="#fcb98b"/>
    <g id="Grupo_1100329" data-name="Grupo 1100329" transform="translate(1046.868 4631.786)">
      <path id="Trazado_874795" data-name="Trazado 874795" d="M83.9,146h2.482v10.754H83.9a2.9,2.9,0,0,1-2.9-2.9V148.9A2.9,2.9,0,0,1,83.9,146Z" transform="translate(-81 -137.521)" fill="#ffd3b3"/>
      <path id="Trazado_874796" data-name="Trazado 874796" d="M295.482,146H293v10.754h2.482a2.9,2.9,0,0,0,2.9-2.9V148.9A2.9,2.9,0,0,0,295.482,146Z" transform="translate(-249.155 -137.521)" fill="#ffd3b3"/>
      <path id="Trazado_874797" data-name="Trazado 874797" d="M145.468,105v20.388a19.234,19.234,0,0,1-38.468,0V105Z" transform="translate(-101.623 -105)" fill="#ffd3b3"/>
    </g>
    <ellipse id="Elipse_11485" data-name="Elipse 11485" cx="12" cy="12.5" rx="12" ry="12.5" transform="translate(1102.938 4637.893)" fill="#ffe352"/>
    <circle id="Elipse_11486" data-name="Elipse 11486" cx="11" cy="11" r="11" transform="translate(1103.938 4639.893)" fill="#ffb236"/>
    <circle id="Elipse_11487" data-name="Elipse 11487" cx="10" cy="10" r="10" transform="translate(1104.938 4640.893)" fill="#ffe352"/>
    <g id="Grupo_1100332" data-name="Grupo 1100332" transform="translate(1095.883 4663.016)">
      <path id="Trazado_874800" data-name="Trazado 874800" d="M354.5,306.877H319.551A1.551,1.551,0,0,1,318,305.326V257.551A1.551,1.551,0,0,1,319.551,256H354.5a1.551,1.551,0,0,1,1.551,1.551v47.775A1.551,1.551,0,0,1,354.5,306.877Z" transform="translate(-318 -256)" fill="#53bced"/>
      <path id="Trazado_874801" data-name="Trazado 874801" d="M318,315.5h38.054v1.034H318Z" transform="translate(-318 -303.194)" fill="#466089"/>
      <path id="Trazado_874802" data-name="Trazado 874802" d="M0,0H6.618V31.023H0Z" transform="translate(34.538 3.102) rotate(90)" fill="#80d6fb"/>
      <path id="Trazado_874803" data-name="Trazado 874803" d="M0,0H1.034V31.023H0Z" transform="translate(34.538 8.686) rotate(90)" fill="#46bee8"/>
    </g>
    <g id="Grupo_1100333" data-name="Grupo 1100333" transform="translate(1099.399 4679.354)">
      <path id="Trazado_874804" data-name="Trazado 874804" d="M348.857,349.477H335.62a.62.62,0,0,1-.62-.62V335.62a.62.62,0,0,1,.62-.62h13.236a.62.62,0,0,1,.62.62v13.236A.62.62,0,0,1,348.857,349.477Z" transform="translate(-335 -335)" fill="#edeff1"/>
      <path id="Trazado_874805" data-name="Trazado 874805" d="M428.857,349.477H415.62a.62.62,0,0,1-.62-.62V335.62a.62.62,0,0,1,.62-.62h13.236a.62.62,0,0,1,.62.62v13.236A.62.62,0,0,1,428.857,349.477Z" transform="translate(-398.455 -335)" fill="#edeff1"/>
      <path id="Trazado_874806" data-name="Trazado 874806" d="M348.857,429.477H335.62a.62.62,0,0,1-.62-.62V415.62a.62.62,0,0,1,.62-.62h13.236a.62.62,0,0,1,.62.62v13.236A.62.62,0,0,1,348.857,429.477Z" transform="translate(-335 -398.455)" fill="#edeff1"/>
      <path id="Trazado_874807" data-name="Trazado 874807" d="M428.857,429.477H415.62a.62.62,0,0,1-.62-.62V415.62a.62.62,0,0,1,.62-.62h13.236a.62.62,0,0,1,.62.62v13.236A.62.62,0,0,1,428.857,429.477Z" transform="translate(-398.455 -398.455)" fill="#edeff1"/>
    </g>
    <g id="Grupo_1100335" data-name="Grupo 1100335" transform="translate(1102.191 4682.146)">
      <path id="Trazado_874808" data-name="Trazado 874808" d="M357.393,351.912h-3.412V348.5h-2.068v3.412H348.5v2.068h3.412v3.412h2.068v-3.412h3.412Z" transform="translate(-348.5 -348.5)" fill="#6e83b7"/>
      <path id="Trazado_874809" data-name="Trazado 874809" d="M358.692,432.177l-1.462-1.463L354.7,433.24l-2.526-2.526-1.462,1.463,2.526,2.526-2.526,2.526,1.462,1.463,2.526-2.526,2.526,2.526,1.462-1.463-2.526-2.526Z" transform="translate(-350.257 -413.711)" fill="#6e83b7"/>
      <path id="Trazado_874810" data-name="Trazado 874810" d="M428.5,365h8.893v2.068H428.5Z" transform="translate(-411.955 -361.588)" fill="#6e83b7"/>
      <g id="Grupo_1100334" data-name="Grupo 1100334" transform="translate(16.545 16.303)">
        <circle id="Elipse_11488" data-name="Elipse 11488" cx="1.213" cy="1.213" r="1.213" transform="translate(3.234)" fill="#6e83b7"/>
        <circle id="Elipse_11489" data-name="Elipse 11489" cx="1.213" cy="1.213" r="1.213" transform="translate(3.234 6.953)" fill="#6e83b7"/>
        <path id="Trazado_874811" data-name="Trazado 874811" d="M428.5,445h8.893v2.068H428.5Z" transform="translate(-428.5 -441.345)" fill="#6e83b7"/>
      </g>
    </g>
  </g>
</svg>
