<svg xmlns="http://www.w3.org/2000/svg" width="146.559" height="129.374" viewBox="0 0 146.559 129.374">
  <g id="Grupo_1100688" data-name="Grupo 1100688" transform="translate(-434.941 -6270.222)">
    <g id="Grupo_1100255" data-name="Grupo 1100255" transform="translate(390 6255.244)">
      <rect id="Rectángulo_401023" data-name="Rectángulo 401023" width="126.094" height="129.373" rx="20" transform="translate(44.941 14.978)" fill="#1e3a8a"/>
      <rect id="Rectángulo_401024" data-name="Rectángulo 401024" width="123.264" height="61.816" rx="20" transform="translate(66.736 70.047)" fill="none" stroke="#fe8938" stroke-miterlimit="10" stroke-width="3"/>
    </g>
    <g id="Grupo_1100378" data-name="Grupo 1100378" transform="translate(440.264 6271.5)">
      <path id="Trazado_874975" data-name="Trazado 874975" d="M20.277,133.033H81.061a5.443,5.443,0,0,0,5.427-5.427V45.113a5.443,5.443,0,0,0-5.427-5.427H52.931a2.262,2.262,0,0,1-4.523,0H20.277a5.443,5.443,0,0,0-5.427,5.427v82.492A5.443,5.443,0,0,0,20.277,133.033Z" transform="translate(0 -23.241)" fill="#5f7080" fill-rule="evenodd"/>
      <path id="Trazado_874976" data-name="Trazado 874976" d="M20.277,39.686a5.443,5.443,0,0,0-5.427,5.427v82.492a5.443,5.443,0,0,0,5.427,5.427Z" transform="translate(0 -23.241)" fill="#566573" fill-rule="evenodd"/>
      <path id="Trazado_874977" data-name="Trazado 874977" d="M48.179,73.015h57.166v78.874H48.179Z" transform="translate(-26.093 -49.334)" fill="#f3f5fb"/>
      <path id="Trazado_874978" data-name="Trazado 874978" d="M48.179,73.015h5.427v78.874H48.179Z" transform="translate(-26.093 -49.334)" fill="#dbe2ec"/>
      <path id="Trazado_874979" data-name="Trazado 874979" d="M90.677,27.56H129.39V16.445H116.478a6.445,6.445,0,0,0-12.89,0H90.677Zm19.356-13.377a2.262,2.262,0,1,1-2.262,2.262A2.262,2.262,0,0,1,110.033,14.183Z" transform="translate(-59.364)" fill="#fe8938" fill-rule="evenodd"/>
      <path id="Trazado_874980" data-name="Trazado 874980" d="M90.677,39.686H96.1V50.8H90.677Z" transform="translate(-59.364 -23.241)" fill="#fe8938"/>
      <path id="Trazado_874981" data-name="Trazado 874981" d="M98.149,142.681a1.3,1.3,0,1,1,0-2.605h25.869a1.3,1.3,0,0,1,0,2.605Zm-13.36-30.113a1.3,1.3,0,1,1,0-2.605h39.23a1.3,1.3,0,1,1,0,2.605Zm13.36,10.038a1.3,1.3,0,1,1,0-2.605h25.869a1.3,1.3,0,1,1,0,2.605Zm0,10.037a1.3,1.3,0,1,1,0-2.605h25.869a1.3,1.3,0,0,1,0,2.605Zm0,20.075a1.3,1.3,0,1,1,0-2.605h14.609a1.3,1.3,0,1,1,0,2.605Zm0,10.037a1.3,1.3,0,1,1,0-2.605h14.609a1.3,1.3,0,1,1,0,2.605Zm0,10.038a1.3,1.3,0,1,1,0-2.605h14.609a1.3,1.3,0,1,1,0,2.605Z" transform="translate(-53.734 -78.26)" fill="#77899b" fill-rule="evenodd"/>
      <path id="Trazado_874982" data-name="Trazado 874982" d="M83.777,198.938a1.3,1.3,0,0,1,2.066-1.567l.762,1,3.166-4.162a1.3,1.3,0,0,1,2.066,1.567l-4.185,5.5a1.3,1.3,0,0,1-2.08.019l-1.8-2.361Zm0-50.188a1.3,1.3,0,0,1,2.066-1.567l.762,1,3.166-4.162a1.3,1.3,0,0,1,2.066,1.567l-4.185,5.5a1.3,1.3,0,0,1-2.08.019l-1.8-2.361Zm0,10.037a1.3,1.3,0,0,1,2.066-1.567l.762,1,3.166-4.162a1.3,1.3,0,1,1,2.066,1.567l-4.185,5.5a1.3,1.3,0,0,1-2.08.019l-1.8-2.361Zm0,10.038a1.3,1.3,0,0,1,2.066-1.567l.762,1,3.166-4.162a1.3,1.3,0,0,1,2.066,1.567l-4.185,5.5a1.3,1.3,0,0,1-2.08.019l-1.8-2.361Zm0,10.037a1.3,1.3,0,0,1,2.066-1.567l.762,1,3.166-4.162a1.3,1.3,0,0,1,2.066,1.567l-4.185,5.5a1.3,1.3,0,0,1-2.08.019l-1.8-2.361Zm0,10.038a1.3,1.3,0,0,1,2.066-1.567l.762,1,3.166-4.162a1.3,1.3,0,0,1,2.066,1.567l-4.185,5.5a1.3,1.3,0,0,1-2.08.019l-1.8-2.361Z" transform="translate(-53.756 -104.524)" fill="#53bced" fill-rule="evenodd"/>
      <rect id="Rectángulo_401689" data-name="Rectángulo 401689" width="44.115" height="44.115" rx="13.694" transform="translate(75.447 72.703)" fill="#afafaf"/>
      <rect id="Rectángulo_401690" data-name="Rectángulo 401690" width="34.128" height="44.115" rx="13.694" transform="translate(85.434 72.703)" fill="#e8e8e8"/>
      <path id="Trazado_874983" data-name="Trazado 874983" d="M372.17,321.039V298.807H354.224v22.232l8.973-5.181Z" transform="translate(-265.692 -226.104)" fill="#fb695b" fill-rule="evenodd"/>
    </g>
  </g>
</svg>
