<svg xmlns="http://www.w3.org/2000/svg" width="94.145" height="94.144" viewBox="0 0 94.145 94.144">
  <g id="Grupo_1100649" data-name="Grupo 1100649" transform="translate(-4 -4)">
    <path id="Trazado_873446" data-name="Trazado 873446" d="M79.072,65.072V18L32,41.536V88.608Z" transform="translate(19.072 9.536)" fill="#b5806b"/>
    <path id="Trazado_873447" data-name="Trazado 873447" d="M4,18V65.072L51.072,88.608V41.536Z" transform="translate(0 9.536)" fill="#d4977c"/>
    <path id="Trazado_873448" data-name="Trazado 873448" d="M98.144,27.536,51.072,51.072,4,27.536,51.072,4Z" fill="#b5806b"/>
    <path id="Trazado_873449" data-name="Trazado 873449" d="M79.072,27.536,32,51.072V4Z" transform="translate(19.072)" fill="#9b6856"/>
    <path id="Trazado_873450" data-name="Trazado 873450" d="M20.725,41.492l6.725,6.725V29.725L14,23V41.492Z" transform="translate(6.811 12.942)" fill="#f3f9ff"/>
    <path id="Trazado_873451" data-name="Trazado 873451" d="M73.092,15.3,27.449,39.547,14,32.822,59.643,8.58Z" transform="translate(6.811 3.12)" fill="#f3f9ff"/>
    <path id="Trazado_873452" data-name="Trazado 873452" d="M60.831,15.3,32,30.62V16.75L47.382,8.58Z" transform="translate(19.072 3.12)" fill="#d8e2ef"/>
  </g>
</svg>
