<svg xmlns="http://www.w3.org/2000/svg" width="146.559" height="129.374" viewBox="0 0 146.559 129.374">
  <g id="Grupo_1100689" data-name="Grupo 1100689" transform="translate(-434.941 -4781.082)">
    <g id="Grupo_1100680" data-name="Grupo 1100680">
      <g id="Grupo_1100243" data-name="Grupo 1100243" transform="translate(390 4766.104)">
        <rect id="Rectángulo_401023" data-name="Rectángulo 401023" width="126.094" height="129.373" rx="20" transform="translate(44.941 14.978)" fill="#1e3a8a"/>
        <rect id="Rectángulo_401024" data-name="Rectángulo 401024" width="123.264" height="61.816" rx="20" transform="translate(66.736 70.047)" fill="none" stroke="#fe8938" stroke-miterlimit="10" stroke-width="3"/>
      </g>
    </g>
    <g id="Grupo_1100338" data-name="Grupo 1100338" transform="translate(455.132 4801.982)">
      <path id="Trazado_874812" data-name="Trazado 874812" d="M84.836,24.973H2.737a2.737,2.737,0,0,1,0-5.473h82.1a2.737,2.737,0,1,1,0,5.473Z" transform="translate(0 51.653)" fill="#b0bec5"/>
      <path id="Trazado_874813" data-name="Trazado 874813" d="M84.836,13.973H2.737a2.737,2.737,0,0,1,0-5.473h82.1a2.737,2.737,0,0,1,0,5.473Z" transform="translate(0 22.515)" fill="#b0bec5"/>
      <path id="Trazado_874814" data-name="Trazado 874814" d="M43.786,19.5H2.737a2.737,2.737,0,0,0,0,5.473h41.05Z" transform="translate(0 51.653)" fill="#99a5ac"/>
      <path id="Trazado_874815" data-name="Trazado 874815" d="M43.786,8.5H2.737a2.737,2.737,0,0,0,0,5.473h41.05Z" transform="translate(0 22.515)" fill="#99a5ac"/>
      <path id="Trazado_874816" data-name="Trazado 874816" d="M31.454,2H7.737A2.757,2.757,0,0,0,5,4.737V22.981a2.757,2.757,0,0,0,2.737,2.737H31.454a2.757,2.757,0,0,0,2.737-2.737V4.737A2.757,2.757,0,0,0,31.454,2Z" transform="translate(13.244 5.298)" fill="#53bced"/>
      <path id="Trazado_874817" data-name="Trazado 874817" d="M13.723,2V13.859a2.737,2.737,0,1,1-5.473,0V2Z" transform="translate(21.853 5.298)" fill="#636363"/>
      <path id="Trazado_874818" data-name="Trazado 874818" d="M16.859,2H7.737A2.757,2.757,0,0,0,5,4.737V22.981a2.757,2.757,0,0,0,2.737,2.737H19.6V16.6a2.757,2.757,0,0,1-2.737-2.737Z" transform="translate(13.244 5.298)" fill="#53bced"/>
      <path id="Trazado_874819" data-name="Trazado 874819" d="M10.987,2H8.25V13.859A2.757,2.757,0,0,0,10.987,16.6Z" transform="translate(21.853 5.298)" fill="#636363"/>
      <path id="Trazado_874820" data-name="Trazado 874820" d="M26.805,14H6.737A2.757,2.757,0,0,0,4,16.737v14.6a2.757,2.757,0,0,0,2.737,2.737H26.805a2.757,2.757,0,0,0,2.737-2.737v-14.6A2.757,2.757,0,0,0,26.805,14Z" transform="translate(10.595 37.084)" fill="#fe8938"/>
      <path id="Trazado_874821" data-name="Trazado 874821" d="M12.223,14v8.21a2.737,2.737,0,1,1-5.473,0V14Z" transform="translate(17.88 37.084)" fill="#636363"/>
      <path id="Trazado_874823" data-name="Trazado 874823" d="M9.487,14H6.75v8.21a2.757,2.757,0,0,0,2.737,2.737Z" transform="translate(17.88 37.084)" fill="#636363"/>
      <path id="Trazado_874824" data-name="Trazado 874824" d="M38.454,13H14.737A2.757,2.757,0,0,0,12,15.737V33.981a2.757,2.757,0,0,0,2.737,2.737H38.454a2.757,2.757,0,0,0,2.737-2.737V15.737A2.757,2.757,0,0,0,38.454,13Z" transform="translate(31.786 34.435)" fill="#fe8938"/>
      <path id="Trazado_874825" data-name="Trazado 874825" d="M20.723,13V24.859a2.737,2.737,0,1,1-5.473,0V13Z" transform="translate(40.395 34.435)" fill="#636363"/>
      <path id="Trazado_874827" data-name="Trazado 874827" d="M17.987,13H15.25V24.859A2.757,2.757,0,0,0,17.987,27.6Z" transform="translate(40.395 34.435)" fill="#636363"/>
      <path id="Trazado_874828" data-name="Trazado 874828" d="M9.122,87.573h-7.3A1.825,1.825,0,0,1,0,85.748V1.824A1.825,1.825,0,0,1,1.824,0h7.3a1.825,1.825,0,0,1,1.824,1.824V85.748A1.825,1.825,0,0,1,9.122,87.573Z" fill="#546e7a"/>
      <path id="Trazado_874829" data-name="Trazado 874829" d="M5.473,0H1.824A1.825,1.825,0,0,0,0,1.824V85.748a1.825,1.825,0,0,0,1.824,1.824H5.473Z" fill="#49606a"/>
      <path id="Trazado_874830" data-name="Trazado 874830" d="M30.122,87.573h-7.3A1.825,1.825,0,0,1,21,85.748V1.824A1.825,1.825,0,0,1,22.824,0h7.3a1.825,1.825,0,0,1,1.824,1.824V85.748A1.825,1.825,0,0,1,30.122,87.573Z" transform="translate(55.626)" fill="#546e7a"/>
      <path id="Trazado_874831" data-name="Trazado 874831" d="M26.473,0H22.824A1.825,1.825,0,0,0,21,1.824V85.748a1.825,1.825,0,0,0,1.824,1.824h3.649Z" transform="translate(55.626)" fill="#49606a"/>
    </g>
  </g>
</svg>
